HIERARCHY
ROOT hip
{
  OFFSET 0 0 0
  CHANNELS 6 Xposition Yposition Zposition Zrotation Yrotation Xrotation
  JOINT abdomen
  {
    OFFSET 0 20.6881 -0.73152
    CHANNELS 3 Zrotation Xrotation Yrotation
    JOINT chest
    {
      OFFSET 0 11.7043 -0.48768
      CHANNELS 3 Zrotation Xrotation Yrotation
      JOINT neck
      {
        OFFSET 0 22.1894 -2.19456
        CHANNELS 3 Zrotation Xrotation Yrotation
        JOINT head
        {
          OFFSET -0.24384 7.07133 1.2192
          CHANNELS 3 Zrotation Xrotation Yrotation
          JOINT leftEye
          {
            OFFSET 4.14528 8.04674 8.04672
            CHANNELS 3 Zrotation Xrotation Yrotation
            End Site
            {
              OFFSET 1 0 0
            }
          }
          JOINT rightEye
          {
            OFFSET -3.6576 8.04674 8.04672
            CHANNELS 3 Zrotation Xrotation Yrotation
            End Site
            {
              OFFSET 1 0 0
            }
          }
        }
      }
      JOINT rCollar
      {
        OFFSET -2.68224 19.2634 -4.8768
        CHANNELS 3 Zrotation Xrotation Yrotation
        JOINT rShldr
        {
          OFFSET -8.77824 -1.95073 1.46304
          CHANNELS 3 Zrotation Xrotation Yrotation
          JOINT rForeArm
          {
            OFFSET -28.1742 -1.7115 0.48768
            CHANNELS 3 Zrotation Xrotation Yrotation
            JOINT rHand
            {
              OFFSET -22.5879 0.773209 7.07136
              CHANNELS 3 Zrotation Xrotation Yrotation
              JOINT rThumb1
              {
                OFFSET -1.2192 -0.487915 3.41376
                CHANNELS 3 Zrotation Xrotation Yrotation
                JOINT rThumb2
                {
                  OFFSET -3.37035 -0.52449 3.41376
                  CHANNELS 3 Zrotation Xrotation Yrotation
                  End Site
                  {
                    OFFSET -1.78271 -1.18214 1.43049
                  }
                }
              }
              JOINT rIndex1
              {
                OFFSET -7.75947 0.938293 5.60832
                CHANNELS 3 Zrotation Xrotation Yrotation
                JOINT rIndex2
                {
                  OFFSET -2.54057 -0.884171 1.56538
                  CHANNELS 3 Zrotation Xrotation Yrotation
                  End Site
                  {
                    OFFSET -1.62519 -0.234802 1.16502
                  }
                }
              }
              JOINT rMid1
              {
                OFFSET -8.24714 1.18213 3.41376
                CHANNELS 3 Zrotation Xrotation Yrotation
                JOINT rMid2
                {
                  OFFSET -3.10165 -0.590103 1.0647
                  CHANNELS 3 Zrotation Xrotation Yrotation
                  End Site
                  {
                    OFFSET -2.48547 -0.328903 0.83742
                  }
                }
              }
              JOINT rRing1
              {
                OFFSET -8.82822 0.546677 1.51678
                CHANNELS 3 Zrotation Xrotation Yrotation
                JOINT rRing2
                {
                  OFFSET -2.60934 -0.819778 -0.0198488
                  CHANNELS 3 Zrotation Xrotation Yrotation
                  End Site
                  {
                    OFFSET -2.33842 -0.294052 0.168128
                  }
                }
              }
              JOINT rPinky1
              {
                OFFSET -8.27202 -0.0477905 -0.4584
                CHANNELS 3 Zrotation Xrotation Yrotation
                JOINT rPinky2
                {
                  OFFSET -1.82734 -0.647385 -0.700984
                  CHANNELS 3 Zrotation Xrotation Yrotation
                  End Site
                  {
                    OFFSET -1.69225 -0.51767 -0.607171
                  }
                }
              }
            }
          }
        }
      }
      JOINT lCollar
      {
        OFFSET 2.68224 19.2634 -4.8768
        CHANNELS 3 Zrotation Xrotation Yrotation
        JOINT lShldr
        {
          OFFSET 8.77824 -1.95073 1.46304
          CHANNELS 3 Zrotation Xrotation Yrotation
          JOINT lForeArm
          {
            OFFSET 28.1742 -1.7115 0.48768
            CHANNELS 3 Zrotation Xrotation Yrotation
            JOINT lHand
            {
              OFFSET 22.5879 0.773209 7.07136
              CHANNELS 3 Zrotation Xrotation Yrotation
              JOINT lThumb1
              {
                OFFSET 1.2192 -0.487915 3.41376
                CHANNELS 3 Zrotation Xrotation Yrotation
                JOINT lThumb2
                {
                  OFFSET 3.37035 -0.52449 3.41376
                  CHANNELS 3 Zrotation Xrotation Yrotation
                  End Site
                  {
                    OFFSET 1.78271 -1.18214 1.43049
                  }
                }
              }
              JOINT lIndex1
              {
                OFFSET 7.75947 0.938293 5.60832
                CHANNELS 3 Zrotation Xrotation Yrotation
                JOINT lIndex2
                {
                  OFFSET 2.54057 -0.884171 1.56538
                  CHANNELS 3 Zrotation Xrotation Yrotation
                  End Site
                  {
                    OFFSET 1.62519 -0.234802 1.16502
                  }
                }
              }
              JOINT lMid1
              {
                OFFSET 8.24714 1.18213 3.41376
                CHANNELS 3 Zrotation Xrotation Yrotation
                JOINT lMid2
                {
                  OFFSET 3.10165 -0.590103 1.0647
                  CHANNELS 3 Zrotation Xrotation Yrotation
                  End Site
                  {
                    OFFSET 2.48547 -0.328903 0.83742
                  }
                }
              }
              JOINT lRing1
              {
                OFFSET 8.82822 0.546677 1.51678
                CHANNELS 3 Zrotation Xrotation Yrotation
                JOINT lRing2
                {
                  OFFSET 2.60934 -0.819778 -0.0198488
                  CHANNELS 3 Zrotation Xrotation Yrotation
                  End Site
                  {
                    OFFSET 2.33842 -0.294052 0.168128
                  }
                }
              }
              JOINT lPinky1
              {
                OFFSET 8.27202 -0.0477905 -0.4584
                CHANNELS 3 Zrotation Xrotation Yrotation
                JOINT lPinky2
                {
                  OFFSET 1.82734 -0.647385 -0.700984
                  CHANNELS 3 Zrotation Xrotation Yrotation
                  End Site
                  {
                    OFFSET 1.69225 -0.51767 -0.607171
                  }
                }
              }
            }
          }
        }
      }
    }
  }
  JOINT rButtock
  {
    OFFSET -8.77824 4.35084 1.2192
    CHANNELS 3 Zrotation Xrotation Yrotation
    JOINT rThigh
    {
      OFFSET 0 -1.70687 -2.19456
      CHANNELS 3 Zrotation Xrotation Yrotation
      JOINT rShin
      {
        OFFSET 0 -36.8199 0.73152
        CHANNELS 3 Zrotation Xrotation Yrotation
        JOINT rFoot
        {
          OFFSET 0.73152 -45.1104 -5.12064
          CHANNELS 3 Zrotation Xrotation Yrotation
          End Site
          {
            OFFSET -1.1221 -3.69964 12.103
          }
        }
      }
    }
  }
  JOINT lButtock
  {
    OFFSET 8.77824 4.35084 1.2192
    CHANNELS 3 Zrotation Xrotation Yrotation
    JOINT lThigh
    {
      OFFSET 0 -1.70687 -2.19456
      CHANNELS 3 Zrotation Xrotation Yrotation
      JOINT lShin
      {
        OFFSET 0 -36.8199 0.73152
        CHANNELS 3 Zrotation Xrotation Yrotation
        JOINT lFoot
        {
          OFFSET -0.73152 -45.1104 -5.12064
          CHANNELS 3 Zrotation Xrotation Yrotation
          End Site
          {
            OFFSET 1.1221 -3.69964 12.103
          }
        }
      }
    }
  }
}
MOTION
Frames:	5
Frame Time:	0.03333
-22.3534 38.567099999999996 8.193100000000001 9.411437 -74.40834 -3.329752 -37.15546 37.126663 -62.362924 109.963731 -15.814432 72.307451 -170.012043 56.015463 131.429099 29.769123 24.219718 -0.806504 -33.204995 16.977682 -53.182877 -28.603896 6.250369 -24.176799 7.573552 3.402613 -41.712161 46.800234 18.270668 -21.625287 -21.914386 14.538602 102.253169 12.502321 14.875545 6.943624 119.457565 -60.065011 19.682389 -142.519135 -19.854548 42.651414 42.85477 59.875006 16.315129 166.837896 -37.159057 70.950732 -50.434445 -75.770704 165.781122 -8.369233 -37.038833 98.957878 6.103971 -71.423811 -92.616448 29.231728 24.2929 -32.235701 106.945905 -6.424761 -6.031076 58.819138 81.005847 -14.064372 20.508826 -30.958328 68.470616 176.900022 -7.787803 151.292781 35.295526 -43.287783 -84.385044 101.800004 -58.927629 128.121258 0.831882 -55.150114 23.651047 -104.99953 1.572412 -142.430297 90.758242 -15.971002 124.659309 12.661372 -66.004565 138.682634 158.917096 -38.554708 143.932602 -18.56973 2.442056 5.740629 85.73664 -0.425564 47.576179 -68.414376 9.232272 -11.263533 7.628085 -22.32964 34.092616 112.573251 -46.697679 31.085482 25.181403 23.158077 37.054209 -66.838444 -52.394864 -156.645642 -79.824349 -3.3386 -81.213383 149.408734 48.702296 36.107043 21.491946 4.989548 5.361329 -60.619812 -13.492271 97.483499 70.263709 -24.543895 116.558838 -84.472857 -14.211764 -115.480159
-22.6419 30.3191 8.929499999999999 10.990988 -78.474851 -3.731464 -29.402183 32.426557 -133.577815 95.290723 48.98306 79.063355 164.108119 41.815497 70.886302 -16.501279 21.364465 118.310987 -13.642559 9.132672 -67.459979 -10.175936 -0.670391 7.518722 40.238717 15.828759 -49.375196 -128.354511 -11.525933 177.27641 -177.483772 -10.969197 -90.889248 15.900274 38.824115 -5.24505 -124.565427 -8.653373 100.553569 55.689662 3.644597 4.260248 21.689198 -72.104614 -90.704755 21.339459 -2.985346 -33.63922 -72.317259 -48.70114 155.017865 -177.539615 -6.786717 43.340254 16.17503 78.093423 65.860054 33.207253 -46.414306 31.894225 89.83706 3.860993 -7.986888 -2.185997 -40.691738 -22.563087 122.142353 -28.754651 153.702451 36.145616 1.760792 -14.278323 134.172761 -10.881505 53.238397 110.314788 -44.64427 144.955355 71.256847 49.978828 -24.371769 160.376752 30.068872 141.163739 -163.568197 12.975656 151.946458 173.296249 -39.384047 77.072818 54.511936 -27.868915 57.585474 168.778509 55.009911 -107.806563 85.059577 9.143873 39.661183 -89.186312 34.083558 -8.042924 -46.670758 36.151371 0.659585 -3.107492 13.045647 92.060176 -11.368394 5.796895 16.063456 19.832406 -65.003896 18.266449 55.026203 48.743065 -8.885487 103.016371 54.461542 80.603359 163.395875 69.895361 17.616736 136.413092 38.487871 -31.737375 -69.495811 16.766517 -34.332034 124.972224 -12.130607 107.19796
-23.035700000000002 23.3366 9.4671 136.748757 -86.844112 -127.453502 -24.330543 38.124437 -0.0 145.128712 -79.041233 136.128422 177.752488 63.021524 81.520855 -22.970015 15.638394 76.6419 -16.534853 5.120355 -34.208679 -24.765521 -2.17572 9.886544 -8.040325 -35.484316 -56.047167 -67.700456 -56.49086 -89.960293 178.454637 16.828947 -102.531837 6.198168 54.735659 -3.928229 0.413469 18.111492 31.250033 -76.96863 80.328608 44.927853 -93.410186 4.023473 129.213985 -101.490954 56.950481 21.77209 -49.271271 -18.824257 143.455239 -71.343413 -8.70236 135.733653 -87.20009 -2.0716 163.692487 -40.457188 28.00724 4.419118 26.342882 -53.025438 -63.146022 25.841133 45.329868 -9.275466 7.208574 -37.558389 45.941204 -104.365838 43.997415 91.222069 78.40484 -14.634139 -117.813821 153.168882 -51.977868 -131.364781 15.591804 0.147527 116.459868 9.709404 -10.835007 10.491218 -57.332534 45.448416 96.480346 84.732085 -74.318178 -146.366323 6.85053 3.932573 44.743827 93.070504 -32.854304 127.301931 -85.889709 55.903245 101.865765 111.796964 32.603198 -68.839487 141.33749 9.988585 147.639501 -125.062102 -62.323361 -105.061187 -69.791516 6.814067 -25.758114 111.269735 -24.313705 -48.437021 -72.894292 31.12952 166.661683 -125.813979 52.372792 -67.141275 176.624151 72.712867 2.696409 124.456881 36.097041 -60.071475 -77.941258 -12.860839 -95.079197 -83.797612 -4.452658 -77.028844
-23.6572 21.148 9.9001 -179.984975 -80.105905 -171.942778 -8.512724 33.898111 -180.0 -30.147412 76.597743 -152.652057 30.027735 82.472737 -83.987451 -39.151933 36.41358 27.576731 -1.519053 0.081361 -6.131366 -3.153955 0.942985 -33.284525 -139.168764 4.526538 -173.181738 -108.914652 68.45948 75.503362 40.987412 -76.471881 -71.887412 129.41345 -33.862218 134.116794 -3.085074 25.412278 30.023653 -74.241338 -28.924887 -100.595838 -105.624589 -4.774625 115.897 169.738484 40.231817 106.083185 46.70112 60.148257 53.639348 162.702163 7.680608 -149.964449 -31.793708 59.200849 105.073522 -9.359403 -5.053722 32.965859 -61.965167 46.303978 -170.838612 -1.042702 25.708662 -2.064669 119.62564 -15.515836 167.702918 51.013697 1.573904 -3.103155 -68.815368 -20.756704 157.316349 -79.243784 25.128459 126.282227 12.290822 64.563432 -23.263014 -14.834836 -68.348283 -5.343251 -4.100353 -13.127309 -19.853577 102.489595 -73.440792 -158.441964 33.192322 -56.888977 81.447323 81.973255 -79.737783 161.841763 86.141195 28.07466 -70.977864 116.006095 4.762209 -163.628408 -25.326497 10.772448 -4.860825 4.765713 -63.085721 12.086384 -35.552721 2.706384 -0.0 77.024407 -46.502622 -38.759128 -70.624004 39.199079 -178.097208 99.501306 27.751956 88.135037 173.603468 71.596156 4.047725 124.335497 36.00572 -0.0 -67.448124 50.964998 150.914632 -131.673436 -9.836156 -77.972223
-24.8502 24.0578 9.8948 -171.757182 -75.795396 178.539751 -3.406805 35.124117 -13.710612 44.280491 -54.585703 45.427731 44.228987 59.918968 70.933534 60.667293 -22.537484 -144.604851 13.748216 -2.654347 -21.756453 12.958237 -5.614929 -46.710022 14.814402 -8.829786 -24.910215 -44.778903 -87.325591 -99.819316 -168.723031 58.738362 -117.132846 27.743807 49.769811 -20.142765 150.951551 -56.921162 50.479509 88.673958 2.314199 43.170909 -10.047173 15.052475 7.297036 -57.802206 -10.968755 114.188899 97.035841 -10.339573 -14.765036 23.948493 -45.72749 86.651344 -101.714957 -4.460881 164.035133 103.606566 -86.668511 122.116752 28.389346 -37.280421 -25.450526 -30.253927 73.877107 91.242049 89.378308 -48.31453 158.36428 -133.266955 35.122854 143.071351 40.422767 6.696897 -145.414237 -88.560279 17.164092 -65.022725 56.317918 64.183074 -52.619378 7.413906 -16.425365 15.721241 47.693312 -27.867948 9.157542 4.084772 -60.756752 135.269955 -30.247763 1.898855 26.958108 -9.16195 1.634989 -19.45647 -153.108267 13.443385 172.47711 -130.074559 -36.1611 -153.310893 36.197506 88.761034 -114.626658 146.919817 53.726858 178.090355 -9.917689 3.715441 13.611839 44.427499 -55.304738 180.0 -8.797576 -72.857799 -110.190362 119.422014 54.98923 66.629928 66.601564 24.335028 28.956519 -124.099918 18.000297 0.0 83.648943 68.805255 4.279919 80.010945 -8.817676 63.891578
